<?xml version="1.0" encoding="utf-8"?>
<svg version="1.1" xmlns="http://www.w3.org/2000/svg" xmlns:xlink="http://www.w3.org/1999/xlink" x="0px" y="0px"
	 viewBox="0 0 512 512" xml:space="preserve">
<style type="text/css">
	.st0{fill: none; stroke: white,}
</style>
<g id="XMLID_1_">
	<path id="XMLID_3_" class="st0" d="M498.5,140c-8.7-5.5-19.7-6.3-29.2-1.6L392,177.1v-41.8c0-33.1-26.8-59.9-59.9-59.9H59.9
		C26.8,75.4,0,102.2,0,135.3v241.4c0,33.1,26.8,59.9,59.9,59.9h271.3c33.1,0,59.9-26.8,59.9-59.9v-41.8l77.3,38.7
		c3.9,2.4,8.7,3.2,13.4,3.2c5.5,0,11-1.6,15.8-4.7c8.7-5.5,14.2-15,14.2-26V165.3C512.7,155,507.2,145.6,498.5,140z" stroke-width='35'/>
</g>
</svg>

